<?xml version="1.0" standalone="no"?><!DOCTYPE svg PUBLIC "-//W3C//DTD SVG 1.1//EN" "http://www.w3.org/Graphics/SVG/1.1/DTD/svg11.dtd"><svg t="1693736075268" class="icon" viewBox="0 0 1024 1024" version="1.1" xmlns="http://www.w3.org/2000/svg" p-id="11721" xmlns:xlink="http://www.w3.org/1999/xlink" width="200" height="200"><path d="M512 128a384 384 0 1 0 0 768 384 384 0 0 0 0-768zM42.666667 512C42.666667 252.8 252.8 42.666667 512 42.666667s469.333333 210.133333 469.333333 469.333333-210.133333 469.333333-469.333333 469.333333S42.666667 771.2 42.666667 512z m533.333333-64a42.666667 42.666667 0 0 1 42.666667-42.666667h85.333333a42.666667 42.666667 0 1 1 0 85.333334h-85.333333a42.666667 42.666667 0 0 1-42.666667-42.666667z m-254.165333 193.834667a42.666667 42.666667 0 0 1 60.330666 0 183.594667 183.594667 0 0 0 259.669334 0 42.666667 42.666667 0 0 1 60.330666 60.330666 268.928 268.928 0 0 1-380.330666 0 42.666667 42.666667 0 0 1 0-60.330666z" fill="#75C82B" p-id="11722"></path><path d="M362.666667 362.666667a42.666667 42.666667 0 0 1 42.666666 42.666666v80a42.666667 42.666667 0 0 1-85.333333 0V405.333333a42.666667 42.666667 0 0 1 42.666667-42.666666z" fill="#75C82B" p-id="11723"></path></svg>