<?xml version="1.0" standalone="no"?><!DOCTYPE svg PUBLIC "-//W3C//DTD SVG 1.1//EN" "http://www.w3.org/Graphics/SVG/1.1/DTD/svg11.dtd"><svg t="1705721640903" class="icon" viewBox="0 0 1024 1024" version="1.1" xmlns="http://www.w3.org/2000/svg" p-id="5398" xmlns:xlink="http://www.w3.org/1999/xlink" width="200" height="200"><path d="M904.2 612.8h-227c-18.5-5-32-21.8-32-42.1 0-24.3 19.2-43.6 43.3-43.6h98c13.8 0 24.6-11.4 24.6-24.8 0-13.9-11.3-24.8-24.6-24.8H545.8c-13.3 0-23.6 10.9-23.6 24.3s10.3 23.8 23.1 25.3h3.9c24.1 0 43.3 19.3 43.3 43.6 0 20.3-13.5 37.2-32 42.1h-18.2c-19.7 0-35.4 15.9-35.4 35.7v2.5c0 19.8 15.8 35.7 35.4 35.7h361.9c19.7 0 35.5-15.9 35.5-35.7v-2.5c0-19.8-15.8-35.7-35.5-35.7M897.3 827H224.7c-20.2 0-36.4 16.2-36.4 36.2 0 20.1 16.2 36.2 36.4 36.2h672.6c20.2 0 36.4-16.2 36.4-36.2 0-20.1-16.2-36.2-36.4-36.2" fill="#EFEFEF" p-id="5399"></path><path d="M672.1 239.5h-341c-42.3 0-76.6 34.4-76.6 76.9v466.4c0 42.5 34.3 76.9 76.6 76.9h403.6c51.4 0 93.2-41.9 93.2-93.6V395.9L672.1 239.5z" fill="#FFFFFF" p-id="5400"></path><path d="M737.7 610.9c0 12-9.6 21.6-21.5 21.6H369.8c-11.9 0-21.5-9.7-21.5-21.6 0-12 9.6-21.6 21.5-21.6h346.4c11.9 0 21.5 9.7 21.5 21.6M737.7 729.9c0 12-9.6 21.6-21.5 21.6H369.8c-11.9 0-21.5-9.7-21.5-21.6s9.6-21.6 21.5-21.6h346.4c11.9 0 21.5 9.7 21.5 21.6" fill="#E5E5E5" p-id="5401"></path><path d="M918.4 536.8c-2.5 0-4.4-2-4.4-4.4v-26.1L895.2 525c-1.5 1.5-4.4 1.5-5.9 0s-1.5-4.4 0-5.9l18.7-18.7h-26.1c-2.5 0-4.4-2-4.4-4.4 0-2.5 2-4.4 4.4-4.4H908l-18.7-18.7c-1.5-1.5-1.5-4.4 0-5.9s4.4-1.5 5.9 0l18.7 18.7v-26.1c0-2.5 2-4.4 4.4-4.4 2.5 0 4.4 2 4.4 4.4v26.1l18.7-18.7c1.5-1.5 4.4-1.5 5.9 0s1.5 4.4 0 5.9l-18.7 18.7h26.1c2.5 0 4.4 2 4.4 4.4 0 2.5-2 4.4-4.4 4.4h-26.1l18.7 18.7c1.5 1.5 1.5 4.4 0 5.9s-4.4 1.5-5.9 0l-18.7-18.7v26.1c0.1 2.4-1.8 4.4-4.3 4.4M82.5 802.1c-10.8 0-19.2-8.9-19.2-19.2 0-10.3 8.8-19.2 19.2-19.2 10.3 0 19.2 8.9 19.2 19.2 0 10.3-8.4 19.2-19.2 19.2m0-30.1c-5.9 0-10.8 4.9-10.8 10.8s4.9 10.8 10.8 10.8 10.8-4.9 10.8-10.8c0-6.3-4.9-10.8-10.8-10.8m459.3-555.4c-10.8 0-19.2-8.9-19.2-19.2 0-10.3 8.9-19.2 19.2-19.2 10.3 0 19.2 8.9 19.2 19.2 0 10.3-8.4 19.2-19.2 19.2m0-30.1c-5.9 0-10.8 4.9-10.8 10.8s4.9 10.8 10.8 10.8 10.8-4.9 10.8-10.8c0-5.8-4.9-10.8-10.8-10.8M155.3 336.8c0 34.7 23.2 63.1 52.3 63.1-29 0-52.3 28.4-52.3 63.1 0-34.7-23.2-63.1-52.3-63.1 29.1 0.1 52.3-28.3 52.3-63.1M265.3 127.7c0 21.1-14.5 37.9-32.5 37.9 18 0 32.5 16.7 32.5 37.9 0-21.1 14.5-37.9 32.5-37.9-18-0.1-32.5-16.8-32.5-37.9" fill="#D8D8D8" p-id="5402"></path><path d="M672.8 239.5v78.9c0 42.1 34.3 76.1 76.7 76.1h77.2l1.2-1.2-155.1-153.8z" fill="#EDEDED" p-id="5403"></path><path d="M790.7 297.2c-1.6 0-3.1-0.6-4.3-1.8-2.4-2.4-2.4-6.3 0-8.6l63.5-63.5c2.4-2.4 6.3-2.4 8.6 0 2.4 2.4 2.4 6.3 0 8.6L795 295.4c-1.2 1.2-2.7 1.8-4.3 1.8M769.1 271.9c-0.7 0-1.4-0.1-2.1-0.4-3.2-1.1-4.8-4.7-3.7-7.9l20.2-56.2c1.1-3.2 4.7-4.9 7.8-3.7 3.2 1.1 4.8 4.7 3.7 7.9l-20.2 56.2c-0.8 2.6-3.2 4.1-5.7 4.1M815.7 311.6c-2.8 0-5.3-2.2-5.8-5.4-0.5-3.5 1.6-6.8 4.8-7.4l67.5-12.4c3.2-0.6 6.3 1.8 6.8 5.3s-1.6 6.8-4.8 7.4l-67.5 12.4c-0.3 0.1-0.6 0.1-1 0.1" fill="#BFBFBF" p-id="5404"></path><path d="M348.2 351.3h220v155.1h-220z" fill="#E5E5E5" p-id="5405"></path><path d="M449.2 702.9c0 84.6-68.6 153.3-153.3 153.3s-153.3-68.6-153.3-153.3 68.6-153.3 153.3-153.3 153.3 68.6 153.3 153.3" fill="#FFFFFF" p-id="5406"></path><path d="M272.5 845.3c-89.5 0-162.3-72.8-162.3-162.3 0-32.5 9.6-63.9 27.7-90.7 2.7-4 8.1-5 12-2.3 4 2.7 5 8 2.3 12-16.2 24-24.8 52-24.8 81.1 0 80 65.1 145 145 145s145-65.1 145-145-65.1-145-145-145c-33.1 0-65.5 11.5-91.2 32.2-3.7 3-9.1 2.4-12.1-1.3s-2.4-9.1 1.3-12.1c28.7-23.3 65-36.1 102-36.1 89.5 0 162.3 72.8 162.3 162.3S362 845.3 272.5 845.3" fill="#BBBBBB" p-id="5407"></path><path d="M343.3 615.8c-11.4-11.4-29.9-11.4-41.3 0-2.5 2.5-2.5 6.6 0 9.1s6.6 2.5 9.1 0c6.3-6.3 16.6-6.3 23 0 6.3 6.3 6.3 16.7 0 23-0.3 0.3-0.6 0.7-0.8 1L232.9 749.5h-23.2v-23.2l84-84 14.8 14.8c2.5 2.5 6.6 2.5 9.1 0s2.5-6.6 0-9.1l-19.4-19.4c-2.5-2.5-6.6-2.5-9.1 0L198.7 719c-1.2 1.2-1.9 2.9-1.9 4.6v32.3c0 3.6 2.9 6.5 6.5 6.5h32.3c1.7 0 3.4-0.7 4.6-1.9l103.4-103.4c0.4-0.4 0.7-0.8 1-1.2 10.1-11.5 9.7-29.1-1.3-40.1" fill="#BBBBBB" p-id="5408"></path></svg>